:SAMPLES-PER-SECOND 30
:FRAME-RANGE 1-668
:FULLY-SPECIFIED
:DEGREES
502
root  4.19461 39.8857 -13.3306 178.119 -50.2626 -177.615
RightUpLeg  -3.73366 -3.1488 -0.816578
RightLeg  11.6541 -2.40989 -1.54329
RightFoot  -8.36585 -0.186928 5.00374
RightToes  -1.33073e-015 0 -3.6325e-017
Spine  5.80846 -0.444645 3.76889
Spine1  -3.87032 -0.276158 0.633215
HEad  13.0512 -30.0563 -5.53769
LeftShoulder1  0.317257 2.61647 -29.6372
LeftArm  -41.3318 26.3639 -20.0772
LeftForeArm  107.705 -66.1417 -151.291
LeftHand  1.30221 18.9615 11.5068
RightShoulder  4.07036 5.80371 37.7734
RightArm  -49.7469 6.75809 -6.80573
RightForeArm  43.96 56.9204 13.4048
RightHand  -1.70708 2.66349 -24.4945
LeftUpLeg  -5.32127 10.067 10.0303
LeftLeg  12.0685 -4.43215 -0.962903
LeftFoot  -5.94034 0.497704 -9.78114
LeftToes  -2.73175e-012 1.00346e-010 -4.28452e-011
503
root  4.38068 39.8595 -13.4313 177.073 -49.5983 -176.544
RightUpLeg  -3.47283 -2.9033 0.172903
RightLeg  11.2494 -2.23137 -1.22269
RightFoot  -8.1568 -0.184758 4.64871
RightToes  -1.33073e-015 0 -3.6325e-017
Spine  6.02922 -0.789821 2.90836
Spine1  -3.73699 -0.755457 1.4042
HEad  11.6086 -31.191 -4.31287
LeftShoulder1  0.379164 2.44039 -29.5407
LeftArm  -40.8367 26.5087 -19.955
LeftForeArm  102.717 -68.5347 -147.306
LeftHand  0.852147 19.1115 7.75909
RightShoulder  4.09663 5.90655 37.5803
RightArm  -53.4646 6.79469 -7.41467
RightForeArm  43.5591 56.914 13.4365
RightHand  -1.70227 2.38263 -25.2713
LeftUpLeg  -5.37617 10.3315 11.1684
LeftLeg  12.7195 -4.28248 -0.886739
LeftFoot  -6.0959 0.488355 -9.84735
LeftToes  -2.73175e-012 1.00346e-010 -4.28452e-011
504
root  4.57509 39.8238 -13.5466 176.082 -49.1428 -175.486
RightUpLeg  -3.29781 -2.6331 1.11853
RightLeg  11.0184 -2.24871 -0.824317
RightFoot  -8.03386 -0.181581 4.39514
RightToes  -1.33073e-015 0 -3.6325e-017
Spine  6.40978 -1.16347 1.8704
Spine1  -3.8279 -1.27863 2.16373
HEad  10.7859 -32.1987 -3.34286
LeftShoulder1  0.442996 2.25065 -29.2343
LeftArm  -40.6792 27.0383 -20.3496
LeftForeArm  98.1257 -70.7515 -142.656
LeftHand  0.695347 18.6407 6.70195
RightShoulder  3.85618 5.40844 37.328
RightArm  -57.5662 6.81012 -8.21415
RightForeArm  43.1457 58.0481 14.1658
RightHand  -1.74191 2.26931 -26.2017
LeftUpLeg  -5.5925 9.33599 12.1877
LeftLeg  13.4589 -3.14076 -0.511796
LeftFoot  -6.18217 0.485556 -9.93843
LeftToes  -2.73175e-012 1.00346e-010 -4.28452e-011
505
root  4.75659 39.7649 -13.6731 175.114 -48.7923 -174.448
RightUpLeg  -3.3064 -2.26484 2.12565
RightLeg  11.2275 -2.38506 -0.571574
RightFoot  -8.08617 -0.168523 3.9948
RightToes  -1.33073e-015 0 -3.6325e-017
Spine  6.82318 -1.55253 0.70355
Spine1  -4.00496 -1.82949 2.98202
HEad  10.8483 -33.1257 -2.51632
LeftShoulder1  0.464775 2.17238 -28.7848
LeftArm  -40.5928 27.6798 -20.6306
LeftForeArm  91.7023 -72.9551 -136.397
LeftHand  0.540059 18.1653 5.57945
RightShoulder  3.53572 4.84353 36.447
RightArm  -60.8943 5.94211 -8.86676
RightForeArm  42.087 59.7496 15.4097
RightHand  -1.72663 1.93546 -27.1096
LeftUpLeg  -5.93527 8.55361 13.2698
LeftLeg  14.4826 -2.30354 -0.316961
LeftFoot  -6.48062 0.458156 -9.8634
LeftToes  -2.73175e-012 1.00346e-010 -4.28452e-011
506
root  4.93193 39.7397 -13.8208 174.509 -48.4796 -173.816
RightUpLeg  -3.24298 -1.81119 2.97038
RightLeg  11.2312 -2.74932 -0.518448
RightFoot  -8.02807 -0.158744 3.601
RightToes  -1.33073e-015 0 -3.6325e-017
Spine  7.1547 -1.9674 -0.893294
Spine1  -4.07253 -2.42116 3.62528
HEad  11.4539 -33.8024 -1.64217
LeftShoulder1  0.478554 2.11744 -28.3878
LeftArm  -40.812 28.4467 -20.2016
LeftForeArm  83.3975 -74.6079 -129.645
LeftHand  0.393171 18.2335 4.28099
RightShoulder  2.9378 3.65147 35.1863
RightArm  -63.0114 5.6596 -9.59867
RightForeArm  40.894 60.418 16.0204
RightHand  -1.72689 1.79021 -27.6363
LeftUpLeg  -5.88479 7.44305 14.0399
LeftLeg  14.6673 -1.19375 0.0240691
LeftFoot  -6.35096 0.472844 -9.96063
LeftToes  -2.73175e-012 1.00346e-010 -4.28452e-011
